<svg xmlns="http://www.w3.org/2000/svg" width="620.5" height="327.032" viewBox="0 0 620.5 327.032">
    <path fill="#fff" d="M-1468.39 523.449c-64.186-.307-127.09-10.793-187.352-34.5-29.587-11.639-57.347-26.691-81.351-48.307-12.923-11.643-24.182-24.781-31.752-40.753-16.829-35.508-11.415-68.679 11.206-99.446 18.653-25.367 43.717-42.582 70.934-56.739 37.018-19.259 76.439-30.937 117.153-38.279a556.589 556.589 0 0 1 118.69-8.668c66.593 2.351 131.37 13.7 192.356 42.655 28 13.29 53.736 30.1 74.208 54.29 17.876 21.124 28.256 45.174 25.738 73.823-1.865 21.193-10.943 39.2-24.021 55.267-20.172 24.788-45.985 41.769-74.015 55.437-41.339 20.16-85.06 32.187-130.339 37.84-27.04 3.375-54.3 4.98-81.454 7.383zm-284.81-164.466c-.111 14.422 4.49 27.3 12.072 39.186 10.861 17.018 25.66 29.785 42.033 40.8 12.22 8.219 13.929 7.278 20.209-6.055 16.007-33.964 31.715-68.111 48.938-101.425a526.435 526.435 0 0 1 59.035-89.573c1.442-1.78 1.717-4.558 2.534-6.872-2.481-.814-4.937-1.73-7.459-2.383-.805-.21-1.779.276-2.682.445a377.336 377.336 0 0 0-77.215 23.055c-26.593 11.216-51.633 25.143-71.986 46.531-14.889 15.637-25.158 33.626-25.479 56.291zm569.874.366c.049-13.57-3.861-25.962-10.721-37.4-12.056-20.086-29.427-34.352-48.786-46.314-4.8-2.967-8.186-1.853-10.811 3.488-3.372 6.869-6.26 13.995-9.353 21.009-27.71 62.7-58.874 123.285-102.021 176.584-1.417 1.75-2.374 4.92-1.828 6.932.333 1.213 3.964 1.636 6.178 2.08a10.045 10.045 0 0 0 3.8-.372c24.432-4.981 48.417-11.656 71.583-21.121 28.441-11.624 55.325-26 76.964-48.9 14.714-15.566 24.741-33.526 24.996-55.986zM-1457.114 222.1c-3.853 0-7.7.06-11.551-.011-15.876-.289-29.193 5.5-38.694 18.655a149.214 149.214 0 0 0-27.2 66.9c-2.477 17.381 7.825 30.034 24.851 31 9.033.514 18.447.233 27.229-1.8 46.079-10.684 89.788-28.264 131.357-51.113 15.087-8.294 29.053-18.854 43.118-28.981 6.108-4.4 4.917-9.209-2.033-11.91-1.023-.4-2.083-.725-3.13-1.044-46.979-14.255-95.067-20.796-143.947-21.696zm-21.462 273.967c4.214 0 8.429-.026 12.647 0 13.494.1 25.426-4.147 34.282-14.816 17.059-20.544 26.445-44.779 30.462-71.23 2.222-14.634-5.5-26.041-19.392-29.526-10.717-2.689-21.507-1.9-32.1.666a532.422 532.422 0 0 0-140.558 56.166c-12.072 6.949-23.22 15.692-34.377 24.187-6.108 4.653-5.094 8.865 1.984 11.9a30.284 30.284 0 0 0 3.1 1.1c46.971 14.354 95.087 20.611 143.951 21.553z" opacity="0.08" transform="translate(1778.687 -196.417)"/>
</svg>
