<svg xmlns="http://www.w3.org/2000/svg" width="16.001" height="16.001" viewBox="0 0 16.001 16.001">
    <g opacity="0.7">
        <path fill="none" d="M0 0h16v16H0z" transform="translate(.207 .207) translate(-.207 -.207)"/>
        <path fill="#fff" d="M9.7 2a7.709 7.709 0 1 0 7.717 7.709A7.705 7.705 0 0 0 9.7 2zm5.342 4.625h-2.273a12.064 12.064 0 0 0-1.064-2.744 6.19 6.19 0 0 1 3.338 2.744zM9.709 3.573a10.859 10.859 0 0 1 1.472 3.053H8.237a10.859 10.859 0 0 1 1.472-3.053zm-5.967 7.678a6.03 6.03 0 0 1 0-3.084h2.606a12.732 12.732 0 0 0-.108 1.542 12.731 12.731 0 0 0 .108 1.542zm.632 1.542h2.274a12.064 12.064 0 0 0 1.064 2.744 6.157 6.157 0 0 1-3.338-2.744zm2.274-6.168H4.374a6.157 6.157 0 0 1 3.338-2.744 12.064 12.064 0 0 0-1.064 2.744zm3.06 9.22a10.859 10.859 0 0 1-1.472-3.053h2.945a10.859 10.859 0 0 1-1.472 3.053zm1.8-4.595H7.905a11.342 11.342 0 0 1-.123-1.542 11.243 11.243 0 0 1 .123-1.542h3.608a11.244 11.244 0 0 1 .123 1.542 11.342 11.342 0 0 1-.123 1.543zm.193 4.286a12.064 12.064 0 0 0 1.064-2.744h2.274a6.19 6.19 0 0 1-3.333 2.745zm1.364-4.286a12.732 12.732 0 0 0 .108-1.542 12.732 12.732 0 0 0-.108-1.542h2.606a6.03 6.03 0 0 1 0 3.084z" transform="translate(.207 .207) translate(-1.624 -1.624)"/>
    </g>
</svg>
