<svg xmlns="http://www.w3.org/2000/svg" width="16" height="16" viewBox="0 0 16 16">
    <g opacity="0.7">
        <g>
            <path fill="#fff" stroke="#fff" stroke-width="0.5px" d="M58.028 8.709l-1.084-2.737 1.085-2.737a.438.438 0 0 0-.043-.405.43.43 0 0 0-.357-.191H52.6V1.623a.433.433 0 0 0-.431-.435h-5.308V.435a.431.431 0 1 0-.861 0v13.972a.431.431 0 1 0 .861 0V7.856h3.445V8.87a.434.434 0 0 0 .431.435h6.891a.43.43 0 0 0 .357-.191.438.438 0 0 0 .043-.405zm-6.286-1.723h-4.881V2.058h4.881zm.035 1.449l.7-.707a.442.442 0 0 0 .126-.308V3.508h4.388l-.912 2.3a.439.439 0 0 0 0 .323l.912 2.3z" transform="translate(-43.035) translate(45.506 .579) translate(-46)"/>
        </g>
    </g>
</svg>
