<svg xmlns="http://www.w3.org/2000/svg" width="12" height="12" viewBox="0 0 12 12">
    <path fill="none" d="M0 0h12v12H0z"/>
    <path fill="#fff" d="M6.622 2a4.622 4.622 0 1 0 4.622 4.622A4.624 4.624 0 0 0 6.622 2zm-.462 8.288a3.692 3.692 0 0 1-3.236-3.666 3.752 3.752 0 0 1 .1-.827l2.212 2.214v.462a.927.927 0 0 0 .924.929zm3.189-1.174a.917.917 0 0 0-.878-.642h-.462V7.084a.464.464 0 0 0-.462-.462H4.773V5.7H5.7a.464.464 0 0 0 .462-.462v-.927h.924a.927.927 0 0 0 .924-.924V3.2a3.689 3.689 0 0 1 1.34 5.916z" transform="translate(-.622 -.622)"/>
</svg>
