<svg xmlns="http://www.w3.org/2000/svg" width="16" height="16" viewBox="0 0 16 16">
    <defs>
        <style>
            .cls-3{fill:#fff}.cls-2{opacity:.7}.cls-3{stroke:#fff;stroke-width:.5px}
        </style>
    </defs>
    <g id="icon-regional" transform="translate(-30.837 .324)">
        <g id="그룹_245" transform="translate(1.577 .659)">
            <g id="그룹_241" class="cls-2" transform="translate(34.984 2.523)">
                <g id="그룹_240">
                    <path id="패스_318" d="M183.269 91a2.269 2.269 0 1 0 2.269 2.269A2.272 2.272 0 0 0 183.269 91zm0 3.631a1.361 1.361 0 1 1 1.361-1.361 1.363 1.363 0 0 1-1.361 1.361z" class="cls-3" transform="translate(-181 -91)"/>
                </g>
            </g>
            <g id="그룹_239" class="cls-2" transform="translate(30.837 -.324)">
                <g id="그룹_238">
                    <path id="패스_317" d="M39.863 9.7c1.555-2.451 1.36-2.146 1.4-2.21a4.71 4.71 0 1 0-7.665.035L34.983 9.7c-1.475.228-3.983.906-3.983 2.4 0 .545.354 1.321 2.04 1.926a13.46 13.46 0 0 0 4.383.655c3.084 0 6.423-.874 6.423-2.581 0-1.494-2.505-2.172-3.983-2.4zm-5.544-2.648l-.019-.021a3.854 3.854 0 1 1 6.27-.043c-.041.055.174-.281-3.15 4.958zm3.1 6.769c-3.368 0-5.567-.995-5.567-1.72 0-.488 1.13-1.29 3.633-1.6l1.573 2.479a.427.427 0 0 0 .722 0l1.577-2.48c2.5.313 3.633 1.115 3.633 1.6 0 .72-2.179 1.721-5.567 1.721z" class="cls-3" transform="translate(-31)"/>
                </g>
            </g>
        </g>
    </g>
</svg>
