<svg xmlns="http://www.w3.org/2000/svg" width="30.087" height="15.857" viewBox="0 0 30.087 15.857">
    <path fill="#fff" d="M-1763.647 212.274a24.94 24.94 0 0 1-9.084-1.673 12.764 12.764 0 0 1-3.944-2.342 6.328 6.328 0 0 1-1.54-1.976 4.435 4.435 0 0 1 .543-4.822 9.585 9.585 0 0 1 3.439-2.751 19.793 19.793 0 0 1 5.681-1.856 26.988 26.988 0 0 1 5.755-.42 23.325 23.325 0 0 1 9.327 2.068 10.438 10.438 0 0 1 3.6 2.632 4.743 4.743 0 0 1 1.248 3.58 4.873 4.873 0 0 1-1.165 2.68 10.279 10.279 0 0 1-3.589 2.688 19.945 19.945 0 0 1-6.32 1.835c-1.311.164-2.633.242-3.95.358zm-13.81-7.975a3.43 3.43 0 0 0 .585 1.9 6.881 6.881 0 0 0 2.038 1.978c.593.4.676.353.98-.294.776-1.647 1.538-3.3 2.373-4.918a25.528 25.528 0 0 1 2.863-4.343 1.128 1.128 0 0 0 .123-.333c-.12-.039-.239-.084-.362-.116a.337.337 0 0 0-.13.022 18.3 18.3 0 0 0-3.744 1.118 10.063 10.063 0 0 0-3.49 2.256 3.963 3.963 0 0 0-1.236 2.731zm27.632.018a3.449 3.449 0 0 0-.52-1.813 6.8 6.8 0 0 0-2.365-2.246c-.233-.144-.4-.09-.524.169-.164.333-.3.679-.454 1.019a37.359 37.359 0 0 1-4.947 8.562.44.44 0 0 0-.089.336c.016.059.192.079.3.1a.486.486 0 0 0 .184-.018 19.359 19.359 0 0 0 3.471-1.024 10.328 10.328 0 0 0 3.732-2.371 3.941 3.941 0 0 0 1.212-2.714zm-13.276-6.655h-.56a2.14 2.14 0 0 0-1.876.9 7.234 7.234 0 0 0-1.319 3.244 1.233 1.233 0 0 0 1.2 1.5 4.724 4.724 0 0 0 1.32-.087 24.87 24.87 0 0 0 6.369-2.478 20.874 20.874 0 0 0 2.091-1.405c.3-.213.238-.447-.1-.577-.05-.019-.1-.035-.152-.051a25.5 25.5 0 0 0-6.972-1.045zm-1.041 13.284h.613a2.03 2.03 0 0 0 1.662-.718 6.907 6.907 0 0 0 1.477-3.454 1.207 1.207 0 0 0-.94-1.432 3.214 3.214 0 0 0-1.556.032 25.816 25.816 0 0 0-6.815 2.723 15.939 15.939 0 0 0-1.667 1.173c-.3.226-.247.43.1.577a1.454 1.454 0 0 0 .15.053 25.417 25.417 0 0 0 6.977 1.047z" transform="translate(1778.693 -196.417)"/>
</svg>
