<svg xmlns="http://www.w3.org/2000/svg" width="114.524" height="15.857" viewBox="0 0 114.524 15.857">
    <defs>
        <style>
            .cls-1{fill:#fff}
        </style>
    </defs>
    <g id="img-logo" transform="translate(1778.693 -196.417)">
        <path id="패스_1" d="M-1763.647 212.274a24.94 24.94 0 0 1-9.084-1.673 12.764 12.764 0 0 1-3.944-2.342 6.328 6.328 0 0 1-1.54-1.976 4.435 4.435 0 0 1 .543-4.822 9.585 9.585 0 0 1 3.439-2.751 19.793 19.793 0 0 1 5.681-1.856 26.988 26.988 0 0 1 5.755-.42 23.325 23.325 0 0 1 9.327 2.068 10.438 10.438 0 0 1 3.6 2.632 4.743 4.743 0 0 1 1.248 3.58 4.873 4.873 0 0 1-1.165 2.68 10.279 10.279 0 0 1-3.589 2.688 19.945 19.945 0 0 1-6.32 1.835c-1.311.164-2.633.242-3.95.358zm-13.81-7.975a3.43 3.43 0 0 0 .585 1.9 6.881 6.881 0 0 0 2.038 1.978c.593.4.676.353.98-.294.776-1.647 1.538-3.3 2.373-4.918a25.528 25.528 0 0 1 2.863-4.343 1.128 1.128 0 0 0 .123-.333c-.12-.039-.239-.084-.362-.116a.337.337 0 0 0-.13.022 18.3 18.3 0 0 0-3.744 1.118 10.063 10.063 0 0 0-3.49 2.256 3.963 3.963 0 0 0-1.236 2.731zm27.632.018a3.449 3.449 0 0 0-.52-1.813 6.8 6.8 0 0 0-2.365-2.246c-.233-.144-.4-.09-.524.169-.164.333-.3.679-.454 1.019a37.359 37.359 0 0 1-4.947 8.562.44.44 0 0 0-.089.336c.016.059.192.079.3.1a.486.486 0 0 0 .184-.018 19.359 19.359 0 0 0 3.471-1.024 10.328 10.328 0 0 0 3.732-2.371 3.941 3.941 0 0 0 1.212-2.714zm-13.276-6.655h-.56a2.14 2.14 0 0 0-1.876.9 7.234 7.234 0 0 0-1.319 3.244 1.233 1.233 0 0 0 1.2 1.5 4.724 4.724 0 0 0 1.32-.087 24.87 24.87 0 0 0 6.369-2.478 20.874 20.874 0 0 0 2.091-1.405c.3-.213.238-.447-.1-.577-.05-.019-.1-.035-.152-.051a25.5 25.5 0 0 0-6.972-1.045zm-1.041 13.284h.613a2.03 2.03 0 0 0 1.662-.718 6.907 6.907 0 0 0 1.477-3.454 1.207 1.207 0 0 0-.94-1.432 3.214 3.214 0 0 0-1.556.032 25.816 25.816 0 0 0-6.815 2.723 15.939 15.939 0 0 0-1.667 1.173c-.3.226-.247.43.1.577a1.454 1.454 0 0 0 .15.053 25.417 25.417 0 0 0 6.977 1.047z" class="cls-1"/>
        <path id="패스_2" d="M34.93 237.263v11.326h-2.581v-3.471c-.1-.008-.18-.02-.257-.02-1.4 0-2.809.006-4.213-.007-.249 0-.292.089-.289.32.011.951 0 1.9 0 2.854v.321h-2.551c-.006-.074-.017-.145-.017-.216v-8.868a2.033 2.033 0 0 1 .956-1.913 2.326 2.326 0 0 1 1.081-.324c2.569-.028 5.138-.015 7.707-.015.05 0 .102.007.164.013zm-2.6 2.457a.6.6 0 0 0-.113-.025c-1.351 0-2.7-.007-4.052 0a.577.577 0 0 0-.567.61c-.011.249 0 .5 0 .748v1.559h4.735z" class="cls-1" transform="translate(-1704.225 -38.65)"/>
        <path id="패스_3" d="M-204.468 248.632v-11.343c.091 0 .185-.012.278-.012h7.47a2.064 2.064 0 0 1 2.166 2.229q.011 3.452 0 6.9a2.064 2.064 0 0 1-2.147 2.222h-7.5zm2.6-2.459a1.223 1.223 0 0 0 .136.019c1.315 0 2.63.006 3.945 0 .447 0 .656-.252.657-.75v-4.986c0-.522-.211-.735-.716-.736h-3.732c-.094 0-.189.009-.29.014z" class="cls-1" transform="translate(-1487.536 -38.677)"/>
        <path id="패스_4" d="M-1108.045 248.967h-2.574v-11.323h2.562v4.291h4.76v-4.291h2.589v11.317h-2.574v-4.517h-4.764z" class="cls-1" transform="translate(-631.285 -39.026)"/>
        <path id="패스_5" d="M-660.357 237.528h2.586c0 .093.013.173.013.254v8.787a2.088 2.088 0 0 1-1.533 2.212 2.222 2.222 0 0 1-.577.086q-3.828.008-7.656 0c-.044 0-.088 0-.157-.008V237.53h2.574v.348c0 2.735 0 5.47-.006 8.205 0 .281.069.359.341.356 1.227-.015 2.454-.006 3.681-.007.539 0 .734-.206.734-.77v-7.789z" class="cls-1" transform="translate(-1049.831 -38.916)"/>
        <path id="패스_6" d="M-436.275 237.282c.09 0 .151-.01.213-.01h7.6a2.007 2.007 0 0 1 2.055 1.682 3 3 0 0 1 .065.631q.006 4.393 0 8.785c0 .073-.008.145-.013.237h-2.576v-.307-7.815c0-.571-.191-.771-.731-.771-1.245 0-2.489.006-3.734-.006-.238 0-.3.071-.3.312.008 2.734.005 5.469.005 8.2v.381h-2.591z" class="cls-1" transform="translate(-1268.494 -38.673)"/>
        <path id="패스_7" d="M-905.007 237.213c1.013 0 1.981-.005 2.948.009.083 0 .187.119.242.208q1.213 1.986 2.414 3.98c.051.084.107.165.185.286.14-.225.263-.422.384-.621.739-1.218 1.479-2.434 2.211-3.656a.366.366 0 0 1 .36-.212c.924.009 1.848 0 2.825 0-.061.113-.1.2-.15.276q-2.093 3.455-4.18 6.913a1.178 1.178 0 0 0-.152.565c-.014 1.081-.007 2.162-.007 3.242v.343h-2.573v-.338c0-1.09.006-2.18-.006-3.27a1.067 1.067 0 0 0-.14-.513q-2.1-3.485-4.211-6.959c-.043-.066-.082-.133-.15-.253z" class="cls-1" transform="translate(-825.55 -38.614)"/>
        <path id="패스_8" d="M259.379 237.428h2.521v11.333h-2.525z" class="cls-1" transform="translate(-1926.073 -38.822)"/>
    </g>
</svg>
